<svg width="428" height="119" viewBox="0 0 428 119" fill="none" xmlns="http://www.w3.org/2000/svg"><path d="M9.8 43.3a21.2 21.2 0 0 1 5.5-14.2c1.9-2 4-3.5 6.7-4.7 2.5-1.2 5.5-1.8 8.8-1.8 3.9 0 7.3.8 10.1 2.5 3 1.7 5.1 3.9 6.5 6.6L40 36.9a8.4 8.4 0 0 0-6-5.2c-1.2-.4-2.3-.5-3.5-.5a10 10 0 0 0-8.2 4c-.9 1.2-1.6 2.5-2 4a16 16 0 0 0 .1 9.3 11.2 11.2 0 0 0 5.7 6.9c1.4.6 3 1 4.6 1a11.6 11.6 0 0 0 6.9-2.5c1-.8 1.9-2 2.4-3.3l7.9 4.6c-.8 2-2.2 3.8-4 5.3a21.2 21.2 0 0 1-13.5 4.4 19.1 19.1 0 0 1-14.9-6.7 22 22 0 0 1-5.7-14.8ZM72.2 65a20.1 20.1 0 0 1-15-6.7 22.7 22.7 0 0 1-5.7-14.7A20.9 20.9 0 0 1 64 24.3c2.6-1.1 5.4-1.7 8.4-1.7s5.9.6 8.4 1.8a21.9 21.9 0 0 1 10.7 27.3 21.7 21.7 0 0 1-11 11.5 19.9 19.9 0 0 1-8.3 1.7ZM61.3 43.7c0 1.6.3 3.1.7 4.7.5 1.4 1.2 2.8 2 4 1 1.1 2.2 2 3.6 2.8 1.3.7 2.9 1 4.7 1 1.8 0 3.4-.3 4.8-1 1.4-.8 2.5-1.7 3.4-3 .9-1.2 1.6-2.5 2-4a15.7 15.7 0 0 0 0-9.3c-.5-1.5-1.2-2.8-2.1-4a9.7 9.7 0 0 0-8.1-3.8c-1.9 0-3.5.3-4.9 1-1.3.7-2.4 1.7-3.4 3-.9 1-1.6 2.4-2 4-.5 1.5-.7 3-.7 4.6ZM62.6 17l6.4-6.3h6.8l6.4 6.3-4.8 2.1-5-3.7-5 3.7-4.8-2ZM131.3 31.3h-12.7v33.3H109V31.3H96.2v-8.5h35v8.5ZM167.1 56.1v8.5h-29.3V22.8h28.8v8.5h-19.2v8.1H164v7.8h-16.5v8.9h19.7ZM190.2 64.6V22.8H209c2 0 3.8.4 5.4 1.3 1.7.7 3.2 1.8 4.4 3.2a14.7 14.7 0 0 1 3 14.6 12.9 12.9 0 0 1-6 7.2l9.2 15.5h-10.6l-8-13.5h-6.5v13.5h-9.7Zm9.7-22h8.8c.8 0 1.4-.1 2-.6.7-.5 1.2-1.2 1.6-2a7.2 7.2 0 0 0-.2-6c-.4-.9-1-1.5-1.6-2-.7-.5-1.4-.7-2.1-.7h-8.5v11.4ZM249.2 65a20.1 20.1 0 0 1-15-6.7 22.7 22.7 0 0 1-5.6-14.7A20.9 20.9 0 0 1 241 24.3c2.5-1.1 5.3-1.7 8.3-1.7a19.5 19.5 0 0 1 15 6.6 22 22 0 0 1 4.1 22.5 21.7 21.7 0 0 1-11 11.5 19.9 19.9 0 0 1-8.3 1.7Zm-10.8-21.2c0 1.6.2 3.1.7 4.7a10.6 10.6 0 0 0 5.5 6.8c1.4.7 3 1 4.7 1 1.8 0 3.5-.3 4.8-1 1.4-.8 2.5-1.7 3.4-3 1-1.2 1.6-2.5 2-4a15.7 15.7 0 0 0 0-9.3c-.4-1.5-1.1-2.8-2-4a9.7 9.7 0 0 0-8.2-3.8c-1.8 0-3.4.3-4.8 1-1.3.7-2.5 1.7-3.4 3-1 1-1.6 2.4-2 4-.5 1.5-.7 3-.7 4.6ZM281.2 22.8l9 18.5 9-18.5h10.6l-14.9 27.5v14.3h-9.6V50.2l-14.6-27.4h10.5ZM321.6 22.8H332l14.4 41.8h-10l-3.2-9.4h-13l-3.1 9.4h-9.9l14.4-41.8Zm10 25.8-4.8-16-5 16h9.9ZM352.2 64.6V22.8h9.7v33.3H382v8.5h-29.9ZM417.7 56.1v8.5h-29.3V22.8h28.8v8.5H398v8.1h16.5v7.8H398v8.9h19.7ZM155.2 108.9V85.6h9.9c1 0 2 .2 3 .7.8.4 1.6 1 2.3 1.7a8.3 8.3 0 0 1 2 5.3 8 8 0 0 1-3.4 6.7c-1 .7-2.3 1-3.8 1h-5.5v7.9h-4.5Zm4.5-11.8h5.3c.5 0 1-.1 1.5-.4.4-.3.7-.8 1-1.3.3-.6.4-1.3.4-2 0-.9-.2-1.5-.5-2.1a3 3 0 0 0-2.6-1.7h-5V97ZM187.8 85.6h4.6L201 109h-4.7l-2.1-5.8H186l-2.1 5.8h-4.7l8.6-23.3Zm5.5 14.3-3.2-9.6-3.3 9.6h6.5ZM211 108.9V85.6h10.4a7.3 7.3 0 0 1 5.3 2.4c.7.8 1.2 1.6 1.5 2.5a7.5 7.5 0 0 1 0 5.7 6.9 6.9 0 0 1-3.6 4l5.3 8.7h-5l-4.8-7.8h-4.5v7.8h-4.5Zm4.6-11.8h5.7c.5 0 1-.1 1.5-.5.4-.3.8-.8 1-1.3.3-.6.4-1.3.4-2a3.9 3.9 0 0 0-1.6-3.2c-.5-.4-1-.5-1.5-.5h-5.5V97ZM240.4 108.9V85.6h4.6V109h-4.6ZM271.2 91.7l-.8-.6-1.5-.8a13.4 13.4 0 0 0-4-.9c-1.1 0-2 .2-2.7.7-.6.5-1 1.1-1 2 0 .6.3 1 .7 1.4.4.4 1 .7 1.7 1l3 .9c1.5.3 2.8.8 4 1.3 1 .6 2 1.3 2.5 2.1.7.9 1 2 1 3.4a7 7 0 0 1-.7 3.3c-.5.8-1.1 1.5-2 2-.7.6-1.7 1-2.7 1.3a17 17 0 0 1-13-2.7l2-3.9 1 .8a17.3 17.3 0 0 0 4.2 1.8c.9.2 1.7.3 2.6.3 1.2 0 2.2-.2 2.8-.6.6-.4 1-1 1-1.8a2 2 0 0 0-.8-1.6 67.3 67.3 0 0 0-5.3-2l-3.7-1.4c-1-.5-1.7-1.2-2.2-2-.4-.8-.7-1.8-.7-3 0-1.5.4-2.9 1.1-4a7 7 0 0 1 3.1-2.4c1.3-.6 2.7-.9 4.3-.9a15.2 15.2 0 0 1 8.1 2.6l-2 3.7Z" fill="#fff"/></svg>