<svg width="500" height="500" viewBox="0 0 500 500" fill="none" xmlns="http://www.w3.org/2000/svg">
<rect width="500" height="500" fill="#131313"/>
<path d="M21 247.555C21 232.605 23.7601 218 29.2802 203.739C34.8003 189.249 42.8505 176.139 53.4308 164.408C64.011 152.678 76.8913 143.363 92.0717 136.463C107.252 129.333 124.502 125.768 143.823 125.768C166.823 125.768 186.719 130.713 203.509 140.603C220.53 150.493 233.18 163.373 241.46 179.244L197.989 209.605C194.309 200.864 189.364 194.079 183.154 189.249C177.174 184.419 170.503 181.084 163.143 179.244C156.013 177.174 149.113 176.139 142.443 176.139C131.633 176.139 122.202 178.324 114.152 182.694C106.102 186.834 99.4318 192.469 94.1417 199.599C88.8516 206.73 84.9415 214.665 82.4114 223.405C79.8814 232.145 78.6163 240.885 78.6163 249.626C78.6163 259.286 80.1114 268.601 83.1015 277.571C86.0915 286.541 90.3466 294.477 95.8668 301.377C101.617 308.277 108.517 313.797 116.567 317.937C124.617 321.847 133.473 323.802 143.133 323.802C150.033 323.802 157.048 322.652 164.178 320.352C171.309 318.052 177.864 314.487 183.844 309.657C190.054 304.597 194.769 298.042 197.989 289.991L244.22 317.247C239.39 329.207 231.455 339.443 220.415 347.953C209.374 356.463 196.839 363.018 182.809 367.618C169.008 371.988 155.323 374.173 141.753 374.173C124.042 374.173 107.712 370.608 92.7617 363.478C78.0413 356.118 65.276 346.458 54.4658 334.498C43.8855 322.307 35.6053 308.737 29.6252 293.787C23.8751 278.606 21 263.196 21 247.555Z" fill="white"/>
<path d="M274.756 372.448V127.492H385.158C396.659 127.492 407.239 129.907 416.899 134.737C426.789 139.337 435.3 145.663 442.43 153.713C449.56 161.533 455.08 170.388 458.99 180.278C463.13 190.169 465.2 200.174 465.2 210.294C465.2 220.414 463.59 230.075 460.37 239.275C457.15 248.245 452.55 256.41 446.57 263.77C440.59 270.901 433.46 276.766 425.179 281.366L479.001 372.448H416.554L369.633 293.441H331.337V372.448H274.756ZM331.337 244.105H383.088C387.688 244.105 391.714 242.725 395.164 239.965C398.844 236.975 401.834 232.95 404.134 227.89C406.434 222.829 407.584 216.964 407.584 210.294C407.584 203.624 406.204 197.874 403.444 193.044C400.914 187.984 397.694 184.074 393.784 181.313C389.874 178.553 385.734 177.173 381.363 177.173H331.337V244.105Z" fill="white"/>
</svg>
